<?xml version="1.0" encoding="UTF-8" standalone="no"?>
<svg
   xmlns:dc="http://purl.org/dc/elements/1.1/"
   xmlns:cc="http://creativecommons.org/ns#"
   xmlns:rdf="http://www.w3.org/1999/02/22-rdf-syntax-ns#"
   xmlns:svg="http://www.w3.org/2000/svg"
   xmlns="http://www.w3.org/2000/svg"
   xmlns:sodipodi="http://sodipodi.sourceforge.net/DTD/sodipodi-0.dtd"
   xmlns:inkscape="http://www.inkscape.org/namespaces/inkscape"
   width="56.653606"
   height="57.141159"
   id="svg4423"
   version="1.1"
   inkscape:version="1.0 (4035a4f, 2020-05-01)"
   sodipodi:docname="C.svg">
  <sodipodi:namedview
     inkscape:document-rotation="0"
     fit-margin-bottom="0"
     fit-margin-right="0"
     fit-margin-left="0"
     fit-margin-top="0"
     inkscape:window-maximized="0"
     inkscape:window-y="23"
     inkscape:window-x="0"
     inkscape:window-height="943"
     inkscape:window-width="1251"
     inkscape:snap-page="true"
     inkscape:snap-bbox="true"
     inkscape:snap-global="true"
     showgrid="false"
     inkscape:current-layer="g6650"
     inkscape:document-units="px"
     inkscape:cy="28.570582"
     inkscape:cx="28.326767"
     inkscape:zoom="2.3496859"
     inkscape:pageshadow="2"
     inkscape:pageopacity="0.0"
     borderopacity="1.0"
     bordercolor="#666666"
     pagecolor="#ffffff"
     id="base" />
  <defs
     id="defs4425" />
  <metadata
     id="metadata4428">
    <rdf:RDF>
      <cc:Work
         rdf:about="">
        <dc:format>image/svg+xml</dc:format>
        <dc:type
           rdf:resource="http://purl.org/dc/dcmitype/StillImage" />
        <dc:title />
      </cc:Work>
    </rdf:RDF>
  </metadata>
  <g
     transform="translate(-343.72048,-497.61051)"
     inkscape:label="AC"
     inkscape:groupmode="layer"
     id="layer1">
    <g
       style="display:inline"
       transform="translate(-713.31495,92.135109)"
       id="g3822">
      <g
         id="g6650">
        <g
           id="g6643">
          <path
             sodipodi:nodetypes="cccscccccscscc"
             inkscape:connector-curvature="0"
             id="path3235"
             d="m 1078.0113,462.61656 c 2.879,-5.77557 4.9759,-11.701 5.3481,-18.03733 0.3416,-2.33169 -1.0746,-2.37079 -1.2881,-0.7286 -4.0764,15.59279 -25.7627,11.37043 -25.0171,-3.29651 0.605,-11.89477 12.4195,-14.45376 18.5823,-10.56451 2.4336,1.43278 2.2961,0.5746 0.9679,-0.91177 -9.1548,-10.21145 -3.6101,-23.36174 8.7612,-23.60244 13.3796,0.79343 16.8512,14.86989 8.6442,23.14833 -1.0206,0.99462 -3.2835,4.19134 0.123,1.9563 8.2868,-5.888 19.7873,0.44285 19.5527,9.52075 -0.4327,16.73889 -20.8391,17.98729 -25.2032,4.00577 -0.4198,-1.55017 -1.6291,-2.32865 -1.295,0.30427 0.6049,4.76663 1.8565,11.95343 5.4374,18.20574 z"
             style="display:inline;fill:#000000;fill-opacity:1" />
        </g>
      </g>
    </g>
  </g>
</svg>
